<svg width="20" height="20" viewBox="0 0 20 20" fill="none" xmlns="http://www.w3.org/2000/svg">
<path d="M16.667 10.2286C16.667 10.5451 16.4319 10.8065 16.1268 10.8479L16.042 10.8536L3.54199 10.8536C3.19681 10.8536 2.91699 10.5738 2.91699 10.2286C2.91699 9.91222 3.15212 9.65073 3.45718 9.60934L3.54199 9.60364L16.042 9.60364C16.3872 9.60364 16.667 9.88346 16.667 10.2286Z" fill="#030303"/>
<path d="M9.02449 14.8061C9.26909 15.0496 9.26994 15.4453 9.02639 15.69C8.80498 15.9123 8.4578 15.9332 8.21274 15.7522L8.14251 15.6919L3.10084 10.6719C2.87781 10.4498 2.85752 10.1014 3.03998 9.8563L3.1008 9.78611L8.14247 4.76527C8.38705 4.5217 8.78278 4.52252 9.02635 4.7671C9.24778 4.98945 9.26723 5.33671 9.08518 5.58101L9.02452 5.65099L4.42783 10.2292L9.02449 14.8061Z" fill="#030303"/>
</svg>
